<mxfile host="app.diagrams.net" modified="2020-07-06T08:29:12.736Z" agent="5.0 (Windows NT 10.0; Win64; x64) AppleWebKit/537.36 (KHTML, like Gecko) Chrome/83.0.4103.116 Safari/537.36" etag="Jkf5JFeqtWkjaQhIcupt" version="13.3.9" type="github" pages="5">
  <diagram id="VxGyCSa300pORVK34n85" name="第 1 页">
    <mxGraphModel dx="1422" dy="794" grid="0" gridSize="10" guides="1" tooltips="1" connect="1" arrows="1" fold="1" page="1" pageScale="1" pageWidth="827" pageHeight="1169" math="0" shadow="0">
      <root>
        <mxCell id="0" />
        <mxCell id="1" parent="0" />
        <mxCell id="mjacnQmBUzNaOpqp9DI--4" value="" style="edgeStyle=none;rounded=0;orthogonalLoop=1;jettySize=auto;html=1;dashed=1;exitX=0.5;exitY=0;exitDx=0;exitDy=0;" parent="1" source="GPF4Tl3sy7tEaeTOkUdq-3" target="GPF4Tl3sy7tEaeTOkUdq-3" edge="1">
          <mxGeometry relative="1" as="geometry">
            <mxPoint x="209" y="444" as="sourcePoint" />
          </mxGeometry>
        </mxCell>
        <mxCell id="mjacnQmBUzNaOpqp9DI--6" style="edgeStyle=none;rounded=0;orthogonalLoop=1;jettySize=auto;html=1;entryX=0.5;entryY=0;entryDx=0;entryDy=0;dashed=1;" parent="1" source="GPF4Tl3sy7tEaeTOkUdq-2" target="GPF4Tl3sy7tEaeTOkUdq-3" edge="1">
          <mxGeometry relative="1" as="geometry" />
        </mxCell>
        <mxCell id="mjacnQmBUzNaOpqp9DI--8" style="edgeStyle=none;rounded=0;orthogonalLoop=1;jettySize=auto;html=1;exitX=0;exitY=0.5;exitDx=0;exitDy=0;dashed=1;" parent="1" source="GPF4Tl3sy7tEaeTOkUdq-2" target="GPF4Tl3sy7tEaeTOkUdq-4" edge="1">
          <mxGeometry relative="1" as="geometry" />
        </mxCell>
        <mxCell id="GPF4Tl3sy7tEaeTOkUdq-2" value="prometheus server" style="rounded=0;whiteSpace=wrap;html=1;" parent="1" vertex="1">
          <mxGeometry x="177" y="383" width="72" height="36" as="geometry" />
        </mxCell>
        <mxCell id="GPF4Tl3sy7tEaeTOkUdq-3" value="pushgateway" style="rounded=0;whiteSpace=wrap;html=1;" parent="1" vertex="1">
          <mxGeometry x="179.5" y="506.5" width="72" height="31" as="geometry" />
        </mxCell>
        <mxCell id="GPF4Tl3sy7tEaeTOkUdq-4" value="Alert&lt;br&gt;Manager" style="whiteSpace=wrap;html=1;aspect=fixed;" parent="1" vertex="1">
          <mxGeometry x="51" y="372.5" width="57" height="57" as="geometry" />
        </mxCell>
        <mxCell id="GPF4Tl3sy7tEaeTOkUdq-14" value="&lt;font style=&quot;font-size: 18px&quot;&gt;自定义监控&lt;/font&gt;" style="text;html=1;resizable=0;autosize=1;align=center;verticalAlign=middle;points=[];fillColor=none;strokeColor=none;rounded=0;" parent="1" vertex="1">
          <mxGeometry x="6" y="172" width="100" height="20" as="geometry" />
        </mxCell>
        <mxCell id="GPF4Tl3sy7tEaeTOkUdq-18" style="edgeStyle=orthogonalEdgeStyle;rounded=0;orthogonalLoop=1;jettySize=auto;html=1;entryX=0;entryY=0.5;entryDx=0;entryDy=0;dashed=1;" parent="1" source="GPF4Tl3sy7tEaeTOkUdq-17" target="GPF4Tl3sy7tEaeTOkUdq-3" edge="1">
          <mxGeometry relative="1" as="geometry" />
        </mxCell>
        <mxCell id="GPF4Tl3sy7tEaeTOkUdq-17" value="" style="strokeWidth=2;html=1;shape=mxgraph.flowchart.database;whiteSpace=wrap;" parent="1" vertex="1">
          <mxGeometry x="33" y="492" width="60" height="60" as="geometry" />
        </mxCell>
        <mxCell id="GPF4Tl3sy7tEaeTOkUdq-19" value="项目metrics信息" style="text;html=1;resizable=0;autosize=1;align=center;verticalAlign=middle;points=[];fillColor=none;strokeColor=none;rounded=0;" parent="1" vertex="1">
          <mxGeometry x="11" y="461" width="97" height="18" as="geometry" />
        </mxCell>
        <mxCell id="GPF4Tl3sy7tEaeTOkUdq-20" value="push" style="text;html=1;resizable=0;autosize=1;align=center;verticalAlign=middle;points=[];fillColor=none;strokeColor=none;rounded=0;" parent="1" vertex="1">
          <mxGeometry x="112" y="492" width="36" height="18" as="geometry" />
        </mxCell>
        <mxCell id="GPF4Tl3sy7tEaeTOkUdq-22" value="pull metrics" style="text;html=1;resizable=0;autosize=1;align=center;verticalAlign=middle;points=[];fillColor=none;strokeColor=none;rounded=0;" parent="1" vertex="1">
          <mxGeometry x="217" y="451" width="71" height="18" as="geometry" />
        </mxCell>
        <mxCell id="mjacnQmBUzNaOpqp9DI--10" style="edgeStyle=none;rounded=0;orthogonalLoop=1;jettySize=auto;html=1;exitX=0.5;exitY=1;exitDx=0;exitDy=0;entryX=0.5;entryY=0;entryDx=0;entryDy=0;dashed=1;" parent="1" source="GPF4Tl3sy7tEaeTOkUdq-23" target="mjacnQmBUzNaOpqp9DI--9" edge="1">
          <mxGeometry relative="1" as="geometry" />
        </mxCell>
        <mxCell id="GPF4Tl3sy7tEaeTOkUdq-23" value="自定义监控WebUI" style="rounded=0;whiteSpace=wrap;html=1;" parent="1" vertex="1">
          <mxGeometry x="323" y="187" width="91" height="38" as="geometry" />
        </mxCell>
        <mxCell id="GPF4Tl3sy7tEaeTOkUdq-25" value="设置告警规则" style="text;html=1;resizable=0;autosize=1;align=center;verticalAlign=middle;points=[];fillColor=none;strokeColor=none;rounded=0;" parent="1" vertex="1">
          <mxGeometry x="130" y="306" width="82" height="18" as="geometry" />
        </mxCell>
        <mxCell id="GPF4Tl3sy7tEaeTOkUdq-30" value="push rules" style="text;html=1;resizable=0;autosize=1;align=center;verticalAlign=middle;points=[];fillColor=none;strokeColor=none;rounded=0;" parent="1" vertex="1">
          <mxGeometry x="112" y="377" width="65" height="18" as="geometry" />
        </mxCell>
        <mxCell id="mjacnQmBUzNaOpqp9DI--3" style="edgeStyle=none;rounded=0;orthogonalLoop=1;jettySize=auto;html=1;exitX=0.5;exitY=0;exitDx=0;exitDy=0;dashed=1;" parent="1" source="GPF4Tl3sy7tEaeTOkUdq-2" target="GPF4Tl3sy7tEaeTOkUdq-2" edge="1">
          <mxGeometry relative="1" as="geometry" />
        </mxCell>
        <mxCell id="mjacnQmBUzNaOpqp9DI--13" style="edgeStyle=orthogonalEdgeStyle;rounded=0;orthogonalLoop=1;jettySize=auto;html=1;entryX=0.5;entryY=0;entryDx=0;entryDy=0;dashed=1;" parent="1" source="mjacnQmBUzNaOpqp9DI--9" target="GPF4Tl3sy7tEaeTOkUdq-2" edge="1">
          <mxGeometry relative="1" as="geometry" />
        </mxCell>
        <mxCell id="fAMWj5L1po7sJsGHcTh_-2" style="edgeStyle=orthogonalEdgeStyle;rounded=0;orthogonalLoop=1;jettySize=auto;html=1;dashed=1;" parent="1" source="mjacnQmBUzNaOpqp9DI--9" edge="1">
          <mxGeometry relative="1" as="geometry">
            <mxPoint x="517.2857142857144" y="377.9048200334822" as="targetPoint" />
            <Array as="points">
              <mxPoint x="517" y="292" />
            </Array>
          </mxGeometry>
        </mxCell>
        <mxCell id="mjacnQmBUzNaOpqp9DI--9" value="prometheus数据源" style="rhombus;whiteSpace=wrap;html=1;rounded=0;" parent="1" vertex="1">
          <mxGeometry x="303.25" y="252" width="130.5" height="81" as="geometry" />
        </mxCell>
        <mxCell id="mjacnQmBUzNaOpqp9DI--14" value="无" style="text;html=1;align=center;verticalAlign=middle;resizable=0;points=[];autosize=1;" parent="1" vertex="1">
          <mxGeometry x="244" y="262" width="22" height="18" as="geometry" />
        </mxCell>
        <mxCell id="86IEdyGPomvb2a5mkSry-14" value="&lt;span style=&quot;color: rgba(0 , 0 , 0 , 0) ; font-family: monospace ; font-size: 0px&quot;&gt;%3CmxGraphModel%3E%3Croot%3E%3CmxCell%20id%3D%220%22%2F%3E%3CmxCell%20id%3D%221%22%20parent%3D%220%22%2F%3E%3CmxCell%20id%3D%222%22%20value%3D%22%22%20style%3D%22rounded%3D0%3BwhiteSpace%3Dwrap%3Bhtml%3D1%3B%22%20vertex%3D%221%22%20parent%3D%221%22%3E%3CmxGeometry%20x%3D%22221%22%20y%3D%22-384.75%22%20width%3D%2267%22%20height%3D%2256%22%20as%3D%22geometry%22%2F%3E%3C%2FmxCell%3E%3CmxCell%20id%3D%223%22%20value%3D%22%22%20style%3D%22rounded%3D0%3BwhiteSpace%3Dwrap%3Bhtml%3D1%3B%22%20vertex%3D%221%22%20parent%3D%221%22%3E%3CmxGeometry%20x%3D%22228%22%20y%3D%22-378%22%20width%3D%2269%22%20height%3D%2260%22%20as%3D%22geometry%22%2F%3E%3C%2FmxCell%3E%3CmxCell%20id%3D%224%22%20style%3D%22edgeStyle%3Dnone%3Brounded%3D0%3BorthogonalLoop%3D1%3BjettySize%3Dauto%3Bhtml%3D1%3Bdashed%3D1%3B%22%20edge%3D%221%22%20source%3D%225%22%20target%3D%2213%22%20parent%3D%221%22%3E%3CmxGeometry%20relative%3D%221%22%20as%3D%22geometry%22%2F%3E%3C%2FmxCell%3E%3CmxCell%20id%3D%225%22%20value%3D%22prometheus%20server%22%20style%3D%22rounded%3D0%3BwhiteSpace%3Dwrap%3Bhtml%3D1%3B%22%20vertex%3D%221%22%20parent%3D%221%22%3E%3CmxGeometry%20x%3D%22241%22%20y%3D%22-371%22%20width%3D%2270%22%20height%3D%2255%22%20as%3D%22geometry%22%2F%3E%3C%2FmxCell%3E%3CmxCell%20id%3D%226%22%20style%3D%22rounded%3D0%3BorthogonalLoop%3D1%3BjettySize%3Dauto%3Bhtml%3D1%3BexitX%3D0.5%3BexitY%3D1%3BexitDx%3D0%3BexitDy%3D0%3Bdashed%3D1%3Bshape%3Dlink%3B%22%20edge%3D%221%22%20source%3D%227%22%20target%3D%229%22%20parent%3D%221%22%3E%3CmxGeometry%20relative%3D%221%22%20as%3D%22geometry%22%2F%3E%3C%2FmxCell%3E%3CmxCell%20id%3D%227%22%20value%3D%22%E8%87%AA%E5%AE%9A%E4%B9%89%E7%9B%91%E6%8E%A7WebUI%22%20style%3D%22rounded%3D0%3BwhiteSpace%3Dwrap%3Bhtml%3D1%3B%22%20vertex%3D%221%22%20parent%3D%221%22%3E%3CmxGeometry%20x%3D%22391%22%20y%3D%22-516%22%20width%3D%2291%22%20height%3D%2238%22%20as%3D%22geometry%22%2F%3E%3C%2FmxCell%3E%3CmxCell%20id%3D%228%22%20style%3D%22edgeStyle%3Dnone%3Brounded%3D0%3BorthogonalLoop%3D1%3BjettySize%3Dauto%3Bhtml%3D1%3BentryX%3D0.583%3BentryY%3D-0.054%3BentryDx%3D0%3BentryDy%3D0%3BentryPerimeter%3D0%3Bdashed%3D1%3B%22%20edge%3D%221%22%20source%3D%229%22%20target%3D%2211%22%20parent%3D%221%22%3E%3CmxGeometry%20relative%3D%221%22%20as%3D%22geometry%22%2F%3E%3C%2FmxCell%3E%3CmxCell%20id%3D%229%22%20value%3D%22Mysql%22%20style%3D%22strokeWidth%3D2%3Bhtml%3D1%3Bshape%3Dmxgraph.flowchart.database%3BwhiteSpace%3Dwrap%3B%22%20vertex%3D%221%22%20parent%3D%221%22%3E%3CmxGeometry%20x%3D%22406.5%22%20y%3D%22-456%22%20width%3D%2259.5%22%20height%3D%2247%22%20as%3D%22geometry%22%2F%3E%3C%2FmxCell%3E%3CmxCell%20id%3D%2210%22%20style%3D%22edgeStyle%3Dnone%3Brounded%3D0%3BorthogonalLoop%3D1%3BjettySize%3Dauto%3Bhtml%3D1%3Bdashed%3D1%3B%22%20edge%3D%221%22%20source%3D%2211%22%20target%3D%225%22%20parent%3D%221%22%3E%3CmxGeometry%20relative%3D%221%22%20as%3D%22geometry%22%2F%3E%3C%2FmxCell%3E%3CmxCell%20id%3D%2211%22%20value%3D%22Rule%26lt%3Bbr%26gt%3BEngine%22%20style%3D%22whiteSpace%3Dwrap%3Bhtml%3D1%3Baspect%3Dfixed%3Brounded%3D0%3Bdashed%3D1%3B%22%20vertex%3D%221%22%20parent%3D%221%22%3E%3CmxGeometry%20x%3D%22401%22%20y%3D%22-378%22%20width%3D%2265%22%20height%3D%2265%22%20as%3D%22geometry%22%2F%3E%3C%2FmxCell%3E%3CmxCell%20id%3D%2212%22%20value%3D%22push%20rules%22%20style%3D%22text%3Bhtml%3D1%3Bresizable%3D0%3Bautosize%3D1%3Balign%3Dcenter%3BverticalAlign%3Dmiddle%3Bpoints%3D%5B%5D%3BfillColor%3Dnone%3BstrokeColor%3Dnone%3Brounded%3D0%3Bdashed%3D1%3B%22%20vertex%3D%221%22%20parent%3D%221%22%3E%3CmxGeometry%20x%3D%22318%22%20y%3D%22-365.75%22%20width%3D%2265%22%20height%3D%2218%22%20as%3D%22geometry%22%2F%3E%3C%2FmxCell%3E%3CmxCell%20id%3D%2213%22%20value%3D%22Alert%26lt%3Bbr%26gt%3BManager%22%20style%3D%22whiteSpace%3Dwrap%3Bhtml%3D1%3Baspect%3Dfixed%3Brounded%3D0%3B%22%20vertex%3D%221%22%20parent%3D%221%22%3E%3CmxGeometry%20x%3D%22233%22%20y%3D%22-286%22%20width%3D%2280%22%20height%3D%2280%22%20as%3D%22geometry%22%2F%3E%3C%2FmxCell%3E%3CmxCell%20id%3D%2214%22%20value%3D%22push%20alerts%22%20style%3D%22text%3Bhtml%3D1%3Bresizable%3D0%3Bautosize%3D1%3Balign%3Dcenter%3BverticalAlign%3Dmiddle%3Bpoints%3D%5B%5D%3BfillColor%3Dnone%3BstrokeColor%3Dnone%3Brounded%3D0%3Bdashed%3D1%3B%22%20vertex%3D%221%22%20parent%3D%221%22%3E%3CmxGeometry%20x%3D%22277%22%20y%3D%22-310%22%20width%3D%2269%22%20height%3D%2218%22%20as%3D%22geometry%22%2F%3E%3C%2FmxCell%3E%3C%2Froot%3E%3C%2FmxGraphModel%3E&lt;/span&gt;" style="text;html=1;align=center;verticalAlign=middle;resizable=0;points=[];autosize=1;" parent="1" vertex="1">
          <mxGeometry x="480" y="507" width="10" height="22" as="geometry" />
        </mxCell>
        <mxCell id="8kGbUksoEKJRAfOwmeRZ-10" style="edgeStyle=none;rounded=0;orthogonalLoop=1;jettySize=auto;html=1;exitX=0.5;exitY=1;exitDx=0;exitDy=0;exitPerimeter=0;entryX=0.5;entryY=0;entryDx=0;entryDy=0;dashed=1;" parent="1" source="fAMWj5L1po7sJsGHcTh_-1" target="8kGbUksoEKJRAfOwmeRZ-1" edge="1">
          <mxGeometry relative="1" as="geometry" />
        </mxCell>
        <mxCell id="fAMWj5L1po7sJsGHcTh_-1" value="Mysql" style="strokeWidth=2;html=1;shape=mxgraph.flowchart.database;whiteSpace=wrap;" parent="1" vertex="1">
          <mxGeometry x="488" y="377" width="59.5" height="45" as="geometry" />
        </mxCell>
        <mxCell id="fAMWj5L1po7sJsGHcTh_-3" value="有" style="text;html=1;align=center;verticalAlign=middle;resizable=0;points=[];autosize=1;" parent="1" vertex="1">
          <mxGeometry x="476" y="271" width="22" height="18" as="geometry" />
        </mxCell>
        <mxCell id="8kGbUksoEKJRAfOwmeRZ-14" style="edgeStyle=none;shape=link;rounded=0;orthogonalLoop=1;jettySize=auto;html=1;exitX=1;exitY=0.5;exitDx=0;exitDy=0;entryX=0;entryY=0.5;entryDx=0;entryDy=0;dashed=1;" parent="1" source="Po4nO__0WneUIU_ec8D--1" target="tgU3LcWjSval7X2boO41-2" edge="1">
          <mxGeometry relative="1" as="geometry" />
        </mxCell>
        <mxCell id="Po4nO__0WneUIU_ec8D--1" value="Rule&lt;br&gt;Engine" style="whiteSpace=wrap;html=1;aspect=fixed;rounded=0;" parent="1" vertex="1">
          <mxGeometry x="598" y="460.25" width="65" height="65" as="geometry" />
        </mxCell>
        <mxCell id="tgU3LcWjSval7X2boO41-2" value="" style="rounded=0;whiteSpace=wrap;html=1;" parent="1" vertex="1">
          <mxGeometry x="721" y="465.75" width="67" height="56" as="geometry" />
        </mxCell>
        <mxCell id="tgU3LcWjSval7X2boO41-3" value="" style="rounded=0;whiteSpace=wrap;html=1;" parent="1" vertex="1">
          <mxGeometry x="731" y="472.5" width="66" height="60" as="geometry" />
        </mxCell>
        <mxCell id="tgU3LcWjSval7X2boO41-4" value="prometheus server" style="rounded=0;whiteSpace=wrap;html=1;" parent="1" vertex="1">
          <mxGeometry x="741" y="479.75" width="70" height="54.75" as="geometry" />
        </mxCell>
        <mxCell id="8kGbUksoEKJRAfOwmeRZ-13" style="edgeStyle=none;shape=link;rounded=0;orthogonalLoop=1;jettySize=auto;html=1;dashed=1;" parent="1" source="8kGbUksoEKJRAfOwmeRZ-1" target="Po4nO__0WneUIU_ec8D--1" edge="1">
          <mxGeometry relative="1" as="geometry" />
        </mxCell>
        <mxCell id="oUZAElstYtq3Fe4YBH69-2" style="edgeStyle=none;rounded=0;orthogonalLoop=1;jettySize=auto;html=1;entryX=1;entryY=0.5;entryDx=0;entryDy=0;dashed=1;" parent="1" source="8kGbUksoEKJRAfOwmeRZ-1" target="oUZAElstYtq3Fe4YBH69-1" edge="1">
          <mxGeometry relative="1" as="geometry" />
        </mxCell>
        <mxCell id="8kGbUksoEKJRAfOwmeRZ-1" value="Alert&lt;br&gt;Gateway" style="whiteSpace=wrap;html=1;aspect=fixed;rounded=0;" parent="1" vertex="1">
          <mxGeometry x="477.75" y="454.5" width="80" height="80" as="geometry" />
        </mxCell>
        <mxCell id="8kGbUksoEKJRAfOwmeRZ-15" value="push alerts" style="text;html=1;align=center;verticalAlign=middle;resizable=0;points=[];autosize=1;" parent="1" vertex="1">
          <mxGeometry x="548" y="422" width="69" height="18" as="geometry" />
        </mxCell>
        <mxCell id="8kGbUksoEKJRAfOwmeRZ-18" value="pull rules" style="text;html=1;align=center;verticalAlign=middle;resizable=0;points=[];autosize=1;" parent="1" vertex="1">
          <mxGeometry x="548" y="542" width="58" height="18" as="geometry" />
        </mxCell>
        <mxCell id="8kGbUksoEKJRAfOwmeRZ-19" value="push alerts" style="text;html=1;align=center;verticalAlign=middle;resizable=0;points=[];autosize=1;" parent="1" vertex="1">
          <mxGeometry x="666" y="422" width="69" height="18" as="geometry" />
        </mxCell>
        <mxCell id="8kGbUksoEKJRAfOwmeRZ-20" value="push rules" style="text;html=1;align=center;verticalAlign=middle;resizable=0;points=[];autosize=1;" parent="1" vertex="1">
          <mxGeometry x="656" y="537.5" width="65" height="18" as="geometry" />
        </mxCell>
        <mxCell id="oUZAElstYtq3Fe4YBH69-1" value="hook 火星告警" style="rounded=0;whiteSpace=wrap;html=1;" parent="1" vertex="1">
          <mxGeometry x="355.75" y="470.63" width="78" height="44.25" as="geometry" />
        </mxCell>
        <mxCell id="oUZAElstYtq3Fe4YBH69-3" style="edgeStyle=none;rounded=0;orthogonalLoop=1;jettySize=auto;html=1;exitX=0;exitY=0.25;exitDx=0;exitDy=0;entryX=0;entryY=0.5;entryDx=0;entryDy=0;dashed=1;" parent="1" source="oUZAElstYtq3Fe4YBH69-1" target="oUZAElstYtq3Fe4YBH69-1" edge="1">
          <mxGeometry relative="1" as="geometry" />
        </mxCell>
      </root>
    </mxGraphModel>
  </diagram>
  <diagram id="Rdh0_NqRiE3vGn_hVacl" name="第 2 页">
    <mxGraphModel dx="1422" dy="1963" grid="0" gridSize="10" guides="1" tooltips="1" connect="1" arrows="1" fold="1" page="1" pageScale="1" pageWidth="827" pageHeight="1169" math="0" shadow="0">
      <root>
        <mxCell id="FZFKREC9YonYhsBC30m9-0" />
        <mxCell id="FZFKREC9YonYhsBC30m9-1" parent="FZFKREC9YonYhsBC30m9-0" />
        <mxCell id="vPs3wD1aNCix6pPcysYI-1" value="" style="edgeStyle=orthogonalEdgeStyle;rounded=0;orthogonalLoop=1;jettySize=auto;html=1;dashed=1;" parent="FZFKREC9YonYhsBC30m9-1" source="FZFKREC9YonYhsBC30m9-2" target="vPs3wD1aNCix6pPcysYI-0" edge="1">
          <mxGeometry relative="1" as="geometry" />
        </mxCell>
        <mxCell id="FZFKREC9YonYhsBC30m9-2" value="" style="shape=ext;rounded=0;html=1;whiteSpace=wrap;dashed=1;dashPattern=1 4;" parent="FZFKREC9YonYhsBC30m9-1" vertex="1">
          <mxGeometry x="736" y="-214" width="138" height="173" as="geometry" />
        </mxCell>
        <mxCell id="vPs3wD1aNCix6pPcysYI-0" value="" style="shape=ext;rounded=0;html=1;whiteSpace=wrap;dashed=1;dashPattern=1 4;" parent="FZFKREC9YonYhsBC30m9-1" vertex="1">
          <mxGeometry x="736" y="-204" width="138" height="173" as="geometry" />
        </mxCell>
        <mxCell id="J8exJaZhV6dP4eGC5oQw-12" style="edgeStyle=none;rounded=0;orthogonalLoop=1;jettySize=auto;html=1;dashed=1;" parent="FZFKREC9YonYhsBC30m9-1" target="J8exJaZhV6dP4eGC5oQw-11" edge="1">
          <mxGeometry relative="1" as="geometry">
            <mxPoint x="275.1428571428571" y="-316" as="sourcePoint" />
          </mxGeometry>
        </mxCell>
        <mxCell id="J8exJaZhV6dP4eGC5oQw-3" style="rounded=0;orthogonalLoop=1;jettySize=auto;html=1;exitX=0.5;exitY=1;exitDx=0;exitDy=0;dashed=1;shape=link;" parent="FZFKREC9YonYhsBC30m9-1" source="2S9Q46NAdJsK2RNrI72u-0" target="J8exJaZhV6dP4eGC5oQw-0" edge="1">
          <mxGeometry relative="1" as="geometry" />
        </mxCell>
        <mxCell id="2S9Q46NAdJsK2RNrI72u-0" value="自定义监控WebUI" style="rounded=0;whiteSpace=wrap;html=1;" parent="FZFKREC9YonYhsBC30m9-1" vertex="1">
          <mxGeometry x="391" y="-516" width="91" height="38" as="geometry" />
        </mxCell>
        <mxCell id="J8exJaZhV6dP4eGC5oQw-9" style="edgeStyle=none;rounded=0;orthogonalLoop=1;jettySize=auto;html=1;entryX=0.583;entryY=-0.054;entryDx=0;entryDy=0;entryPerimeter=0;dashed=1;" parent="FZFKREC9YonYhsBC30m9-1" source="J8exJaZhV6dP4eGC5oQw-0" target="J8exJaZhV6dP4eGC5oQw-4" edge="1">
          <mxGeometry relative="1" as="geometry" />
        </mxCell>
        <mxCell id="J8exJaZhV6dP4eGC5oQw-0" value="Mysql" style="strokeWidth=2;html=1;shape=mxgraph.flowchart.database;whiteSpace=wrap;" parent="FZFKREC9YonYhsBC30m9-1" vertex="1">
          <mxGeometry x="406.5" y="-456" width="59.5" height="47" as="geometry" />
        </mxCell>
        <mxCell id="J8exJaZhV6dP4eGC5oQw-8" style="edgeStyle=none;rounded=0;orthogonalLoop=1;jettySize=auto;html=1;dashed=1;" parent="FZFKREC9YonYhsBC30m9-1" source="J8exJaZhV6dP4eGC5oQw-4" edge="1">
          <mxGeometry relative="1" as="geometry">
            <mxPoint x="311" y="-344.33333333333326" as="targetPoint" />
          </mxGeometry>
        </mxCell>
        <mxCell id="J8exJaZhV6dP4eGC5oQw-4" value="Rule&lt;br&gt;Engine" style="whiteSpace=wrap;html=1;aspect=fixed;rounded=0;dashed=1;" parent="FZFKREC9YonYhsBC30m9-1" vertex="1">
          <mxGeometry x="401" y="-378" width="65" height="65" as="geometry" />
        </mxCell>
        <mxCell id="J8exJaZhV6dP4eGC5oQw-6" value="push rules" style="text;html=1;resizable=0;autosize=1;align=center;verticalAlign=middle;points=[];fillColor=none;strokeColor=none;rounded=0;dashed=1;" parent="FZFKREC9YonYhsBC30m9-1" vertex="1">
          <mxGeometry x="318" y="-365.75" width="65" height="18" as="geometry" />
        </mxCell>
        <mxCell id="J8exJaZhV6dP4eGC5oQw-11" value="Alert&lt;br&gt;Manager" style="whiteSpace=wrap;html=1;aspect=fixed;rounded=0;" parent="FZFKREC9YonYhsBC30m9-1" vertex="1">
          <mxGeometry x="233" y="-286" width="80" height="80" as="geometry" />
        </mxCell>
        <mxCell id="J8exJaZhV6dP4eGC5oQw-13" value="push alerts" style="text;html=1;resizable=0;autosize=1;align=center;verticalAlign=middle;points=[];fillColor=none;strokeColor=none;rounded=0;dashed=1;" parent="FZFKREC9YonYhsBC30m9-1" vertex="1">
          <mxGeometry x="277" y="-310" width="69" height="18" as="geometry" />
        </mxCell>
      </root>
    </mxGraphModel>
  </diagram>
  <diagram id="gCSzOwecwBq-_xMJx6Aa" name="第 3 页">
    <mxGraphModel dx="1422" dy="794" grid="0" gridSize="10" guides="1" tooltips="1" connect="1" arrows="1" fold="1" page="1" pageScale="1" pageWidth="827" pageHeight="1169" math="0" shadow="0">
      <root>
        <mxCell id="MtsEzOIMqpcMGKXF8fx7-0" />
        <mxCell id="MtsEzOIMqpcMGKXF8fx7-1" parent="MtsEzOIMqpcMGKXF8fx7-0" />
        <mxCell id="MtsEzOIMqpcMGKXF8fx7-2" value="prom_source" style="swimlane;fontStyle=0;childLayout=stackLayout;horizontal=1;startSize=22;horizontalStack=0;resizeParent=1;resizeParentMax=0;resizeLast=0;collapsible=1;marginBottom=0;align=center;fontSize=14;rounded=0;" parent="MtsEzOIMqpcMGKXF8fx7-1" vertex="1">
          <mxGeometry x="240" y="160" width="139" height="74" as="geometry" />
        </mxCell>
        <mxCell id="MtsEzOIMqpcMGKXF8fx7-3" value="id" style="text;strokeColor=none;fillColor=none;spacingLeft=4;spacingRight=4;overflow=hidden;rotatable=0;points=[[0,0.5],[1,0.5]];portConstraint=eastwest;fontSize=12;" parent="MtsEzOIMqpcMGKXF8fx7-2" vertex="1">
          <mxGeometry y="22" width="139" height="26" as="geometry" />
        </mxCell>
        <mxCell id="MtsEzOIMqpcMGKXF8fx7-4" value="prom_id" style="text;strokeColor=none;fillColor=none;spacingLeft=4;spacingRight=4;overflow=hidden;rotatable=0;points=[[0,0.5],[1,0.5]];portConstraint=eastwest;fontSize=12;" parent="MtsEzOIMqpcMGKXF8fx7-2" vertex="1">
          <mxGeometry y="48" width="139" height="26" as="geometry" />
        </mxCell>
        <mxCell id="MtsEzOIMqpcMGKXF8fx7-21" value="rules" style="shape=table;startSize=30;container=1;collapsible=1;childLayout=tableLayout;fixedRows=1;rowLines=0;fontStyle=1;align=center;resizeLast=1;rounded=0;" parent="MtsEzOIMqpcMGKXF8fx7-1" vertex="1">
          <mxGeometry x="188" y="294" width="180" height="271.41668701171875" as="geometry" />
        </mxCell>
        <mxCell id="MtsEzOIMqpcMGKXF8fx7-22" value="" style="shape=partialRectangle;collapsible=0;dropTarget=0;pointerEvents=0;fillColor=none;top=0;left=0;bottom=1;right=0;points=[[0,0.5],[1,0.5]];portConstraint=eastwest;" parent="MtsEzOIMqpcMGKXF8fx7-21" vertex="1">
          <mxGeometry y="30" width="180" height="30" as="geometry" />
        </mxCell>
        <mxCell id="MtsEzOIMqpcMGKXF8fx7-23" value="PK" style="shape=partialRectangle;connectable=0;fillColor=none;top=0;left=0;bottom=0;right=0;fontStyle=1;overflow=hidden;" parent="MtsEzOIMqpcMGKXF8fx7-22" vertex="1">
          <mxGeometry width="30" height="30" as="geometry" />
        </mxCell>
        <mxCell id="MtsEzOIMqpcMGKXF8fx7-24" value="id" style="shape=partialRectangle;connectable=0;fillColor=none;top=0;left=0;bottom=0;right=0;align=left;spacingLeft=6;fontStyle=5;overflow=hidden;" parent="MtsEzOIMqpcMGKXF8fx7-22" vertex="1">
          <mxGeometry x="30" width="150" height="30" as="geometry" />
        </mxCell>
        <mxCell id="MtsEzOIMqpcMGKXF8fx7-25" value="" style="shape=partialRectangle;collapsible=0;dropTarget=0;pointerEvents=0;fillColor=none;top=0;left=0;bottom=0;right=0;points=[[0,0.5],[1,0.5]];portConstraint=eastwest;" parent="MtsEzOIMqpcMGKXF8fx7-21" vertex="1">
          <mxGeometry y="60" width="180" height="30" as="geometry" />
        </mxCell>
        <mxCell id="MtsEzOIMqpcMGKXF8fx7-26" value="" style="shape=partialRectangle;connectable=0;fillColor=none;top=0;left=0;bottom=0;right=0;editable=1;overflow=hidden;" parent="MtsEzOIMqpcMGKXF8fx7-25" vertex="1">
          <mxGeometry width="30" height="30" as="geometry" />
        </mxCell>
        <mxCell id="MtsEzOIMqpcMGKXF8fx7-27" value="prom_id" style="shape=partialRectangle;connectable=0;fillColor=none;top=0;left=0;bottom=0;right=0;align=left;spacingLeft=6;overflow=hidden;" parent="MtsEzOIMqpcMGKXF8fx7-25" vertex="1">
          <mxGeometry x="30" width="150" height="30" as="geometry" />
        </mxCell>
        <mxCell id="MtsEzOIMqpcMGKXF8fx7-28" value="" style="shape=partialRectangle;collapsible=0;dropTarget=0;pointerEvents=0;fillColor=none;top=0;left=0;bottom=0;right=0;points=[[0,0.5],[1,0.5]];portConstraint=eastwest;" parent="MtsEzOIMqpcMGKXF8fx7-21" vertex="1">
          <mxGeometry y="90" width="180" height="30" as="geometry" />
        </mxCell>
        <mxCell id="MtsEzOIMqpcMGKXF8fx7-29" value="" style="shape=partialRectangle;connectable=0;fillColor=none;top=0;left=0;bottom=0;right=0;editable=1;overflow=hidden;" parent="MtsEzOIMqpcMGKXF8fx7-28" vertex="1">
          <mxGeometry width="30" height="30" as="geometry" />
        </mxCell>
        <mxCell id="MtsEzOIMqpcMGKXF8fx7-30" value="expr" style="shape=partialRectangle;connectable=0;fillColor=none;top=0;left=0;bottom=0;right=0;align=left;spacingLeft=6;overflow=hidden;" parent="MtsEzOIMqpcMGKXF8fx7-28" vertex="1">
          <mxGeometry x="30" width="150" height="30" as="geometry" />
        </mxCell>
        <mxCell id="MtsEzOIMqpcMGKXF8fx7-31" value="" style="shape=partialRectangle;collapsible=0;dropTarget=0;pointerEvents=0;fillColor=none;top=0;left=0;bottom=0;right=0;points=[[0,0.5],[1,0.5]];portConstraint=eastwest;" parent="MtsEzOIMqpcMGKXF8fx7-21" vertex="1">
          <mxGeometry y="120" width="180" height="20" as="geometry" />
        </mxCell>
        <mxCell id="MtsEzOIMqpcMGKXF8fx7-32" value="" style="shape=partialRectangle;connectable=0;fillColor=none;top=0;left=0;bottom=0;right=0;editable=1;overflow=hidden;" parent="MtsEzOIMqpcMGKXF8fx7-31" vertex="1">
          <mxGeometry width="30" height="20" as="geometry" />
        </mxCell>
        <mxCell id="MtsEzOIMqpcMGKXF8fx7-33" value="op" style="shape=partialRectangle;connectable=0;fillColor=none;top=0;left=0;bottom=0;right=0;align=left;spacingLeft=6;overflow=hidden;" parent="MtsEzOIMqpcMGKXF8fx7-31" vertex="1">
          <mxGeometry x="30" width="150" height="20" as="geometry" />
        </mxCell>
        <mxCell id="MtsEzOIMqpcMGKXF8fx7-36" value="value" style="shape=partialRectangle;connectable=0;fillColor=none;top=0;left=0;bottom=0;right=0;align=left;spacingLeft=6;overflow=hidden;" parent="MtsEzOIMqpcMGKXF8fx7-1" vertex="1">
          <mxGeometry x="218" y="441" width="150" height="20" as="geometry" />
        </mxCell>
        <mxCell id="MtsEzOIMqpcMGKXF8fx7-37" value="description" style="shape=partialRectangle;connectable=0;fillColor=none;top=0;left=0;bottom=0;right=0;align=left;spacingLeft=6;overflow=hidden;" parent="MtsEzOIMqpcMGKXF8fx7-1" vertex="1">
          <mxGeometry x="220" y="540" width="150" height="20" as="geometry" />
        </mxCell>
        <mxCell id="MtsEzOIMqpcMGKXF8fx7-39" value="summary" style="shape=partialRectangle;connectable=0;fillColor=none;top=0;left=0;bottom=0;right=0;align=left;spacingLeft=6;overflow=hidden;" parent="MtsEzOIMqpcMGKXF8fx7-1" vertex="1">
          <mxGeometry x="218" y="514" width="150" height="20" as="geometry" />
        </mxCell>
        <mxCell id="MtsEzOIMqpcMGKXF8fx7-40" value="labels" style="shape=partialRectangle;connectable=0;fillColor=none;top=0;left=0;bottom=0;right=0;align=left;spacingLeft=6;overflow=hidden;" parent="MtsEzOIMqpcMGKXF8fx7-1" vertex="1">
          <mxGeometry x="218" y="491" width="150" height="20" as="geometry" />
        </mxCell>
        <mxCell id="MtsEzOIMqpcMGKXF8fx7-43" value="for" style="shape=partialRectangle;connectable=0;fillColor=none;top=0;left=0;bottom=0;right=0;align=left;spacingLeft=6;overflow=hidden;" parent="MtsEzOIMqpcMGKXF8fx7-1" vertex="1">
          <mxGeometry x="220" y="467" width="150" height="20" as="geometry" />
        </mxCell>
        <mxCell id="MtsEzOIMqpcMGKXF8fx7-5" value="expr" style="text;strokeColor=none;fillColor=none;spacingLeft=4;spacingRight=4;overflow=hidden;rotatable=0;points=[[0,0.5],[1,0.5]];portConstraint=eastwest;fontSize=12;" parent="MtsEzOIMqpcMGKXF8fx7-1" vertex="1">
          <mxGeometry x="344" y="113" width="139" height="26" as="geometry" />
        </mxCell>
      </root>
    </mxGraphModel>
  </diagram>
  <diagram id="B73ah47Bk72MuM7XC75W" name="第 4 页">
    <mxGraphModel dx="1422" dy="1963" grid="0" gridSize="10" guides="1" tooltips="1" connect="0" arrows="0" fold="1" page="1" pageScale="1" pageWidth="827" pageHeight="1169" math="0" shadow="0">
      <root>
        <mxCell id="gAgLK6gLITIS4cRQ0gTJ-0" />
        <mxCell id="gAgLK6gLITIS4cRQ0gTJ-1" parent="gAgLK6gLITIS4cRQ0gTJ-0" />
        <mxCell id="MRH_pRlN9ELd_6sNQZm8-9" value="" style="shape=ext;rounded=0;html=1;whiteSpace=wrap;dashed=1;dashPattern=1 4;" vertex="1" parent="gAgLK6gLITIS4cRQ0gTJ-1">
          <mxGeometry x="17" y="49.38" width="465" height="324" as="geometry" />
        </mxCell>
        <mxCell id="MRH_pRlN9ELd_6sNQZm8-18" value="&lt;font style=&quot;font-size: 20px&quot;&gt;自定义监控&lt;/font&gt;" style="text;html=1;align=center;verticalAlign=middle;resizable=0;points=[];autosize=1;" vertex="1" parent="gAgLK6gLITIS4cRQ0gTJ-1">
          <mxGeometry x="35" y="54" width="110" height="21" as="geometry" />
        </mxCell>
        <mxCell id="MRH_pRlN9ELd_6sNQZm8-19" style="edgeStyle=orthogonalEdgeStyle;rounded=0;orthogonalLoop=1;jettySize=auto;html=1;exitX=0.5;exitY=1;exitDx=0;exitDy=0;shape=link;" edge="1" parent="gAgLK6gLITIS4cRQ0gTJ-1" source="MRH_pRlN9ELd_6sNQZm8-20" target="MRH_pRlN9ELd_6sNQZm8-22">
          <mxGeometry relative="1" as="geometry" />
        </mxCell>
        <mxCell id="MRH_pRlN9ELd_6sNQZm8-20" value="自定义监控WebUI" style="rounded=1;whiteSpace=wrap;html=1;" vertex="1" parent="gAgLK6gLITIS4cRQ0gTJ-1">
          <mxGeometry x="161" y="82" width="120" height="60" as="geometry" />
        </mxCell>
        <mxCell id="MRH_pRlN9ELd_6sNQZm8-21" style="edgeStyle=orthogonalEdgeStyle;rounded=0;orthogonalLoop=1;jettySize=auto;html=1;" edge="1" parent="gAgLK6gLITIS4cRQ0gTJ-1" source="MRH_pRlN9ELd_6sNQZm8-22">
          <mxGeometry relative="1" as="geometry">
            <mxPoint x="221" y="308" as="targetPoint" />
          </mxGeometry>
        </mxCell>
        <mxCell id="MRH_pRlN9ELd_6sNQZm8-22" value="Mysql" style="shape=cylinder;whiteSpace=wrap;html=1;boundedLbl=1;backgroundOutline=1;" vertex="1" parent="gAgLK6gLITIS4cRQ0gTJ-1">
          <mxGeometry x="191" y="192" width="60" height="67" as="geometry" />
        </mxCell>
        <mxCell id="MRH_pRlN9ELd_6sNQZm8-23" value="" style="edgeStyle=orthogonalEdgeStyle;rounded=0;orthogonalLoop=1;jettySize=auto;html=1;shape=link;" edge="1" parent="gAgLK6gLITIS4cRQ0gTJ-1" source="MRH_pRlN9ELd_6sNQZm8-24" target="MRH_pRlN9ELd_6sNQZm8-25">
          <mxGeometry relative="1" as="geometry" />
        </mxCell>
        <mxCell id="MRH_pRlN9ELd_6sNQZm8-24" value="Alert Gateway" style="rounded=0;whiteSpace=wrap;html=1;" vertex="1" parent="gAgLK6gLITIS4cRQ0gTJ-1">
          <mxGeometry x="159" y="309" width="120" height="60" as="geometry" />
        </mxCell>
        <mxCell id="MRH_pRlN9ELd_6sNQZm8-25" value="Rule Engine" style="rounded=0;whiteSpace=wrap;html=1;" vertex="1" parent="gAgLK6gLITIS4cRQ0gTJ-1">
          <mxGeometry x="359" y="309" width="120" height="60" as="geometry" />
        </mxCell>
        <mxCell id="MRH_pRlN9ELd_6sNQZm8-26" value="Text" style="text;html=1;align=center;verticalAlign=middle;resizable=0;points=[];autosize=1;" vertex="1" parent="gAgLK6gLITIS4cRQ0gTJ-1">
          <mxGeometry x="875" y="-23" width="32" height="18" as="geometry" />
        </mxCell>
        <mxCell id="MRH_pRlN9ELd_6sNQZm8-27" value="Text" style="text;html=1;align=center;verticalAlign=middle;resizable=0;points=[];autosize=1;" vertex="1" parent="gAgLK6gLITIS4cRQ0gTJ-1">
          <mxGeometry x="984" y="90" width="32" height="18" as="geometry" />
        </mxCell>
        <mxCell id="MRH_pRlN9ELd_6sNQZm8-28" value="Text" style="text;html=1;align=center;verticalAlign=middle;resizable=0;points=[];autosize=1;" vertex="1" parent="gAgLK6gLITIS4cRQ0gTJ-1">
          <mxGeometry x="704" y="439" width="32" height="18" as="geometry" />
        </mxCell>
        <mxCell id="ubaqVUaNlJTxCrMpt4IK-21" style="edgeStyle=orthogonalEdgeStyle;rounded=0;orthogonalLoop=1;jettySize=auto;html=1;entryX=0.5;entryY=0;entryDx=0;entryDy=0;" edge="1" parent="gAgLK6gLITIS4cRQ0gTJ-1" source="ubaqVUaNlJTxCrMpt4IK-3" target="ubaqVUaNlJTxCrMpt4IK-10">
          <mxGeometry relative="1" as="geometry" />
        </mxCell>
        <mxCell id="ubaqVUaNlJTxCrMpt4IK-3" value="pushgateway" style="shape=ext;rounded=1;html=1;whiteSpace=wrap;" vertex="1" parent="gAgLK6gLITIS4cRQ0gTJ-1">
          <mxGeometry x="707" y="190" width="71" height="38" as="geometry" />
        </mxCell>
        <mxCell id="ubaqVUaNlJTxCrMpt4IK-26" style="edgeStyle=orthogonalEdgeStyle;rounded=0;orthogonalLoop=1;jettySize=auto;html=1;entryX=0.967;entryY=0.394;entryDx=0;entryDy=0;entryPerimeter=0;shape=link;" edge="1" parent="gAgLK6gLITIS4cRQ0gTJ-1" source="ubaqVUaNlJTxCrMpt4IK-10" target="MRH_pRlN9ELd_6sNQZm8-25">
          <mxGeometry relative="1" as="geometry" />
        </mxCell>
        <mxCell id="ubaqVUaNlJTxCrMpt4IK-10" value="" style="rounded=0;whiteSpace=wrap;html=1;" vertex="1" parent="gAgLK6gLITIS4cRQ0gTJ-1">
          <mxGeometry x="566" y="304.63" width="67" height="56" as="geometry" />
        </mxCell>
        <mxCell id="ubaqVUaNlJTxCrMpt4IK-11" value="" style="rounded=0;whiteSpace=wrap;html=1;" vertex="1" parent="gAgLK6gLITIS4cRQ0gTJ-1">
          <mxGeometry x="573" y="311.38" width="69" height="60" as="geometry" />
        </mxCell>
        <mxCell id="ubaqVUaNlJTxCrMpt4IK-12" value="prometheus server" style="rounded=0;whiteSpace=wrap;html=1;" vertex="1" parent="gAgLK6gLITIS4cRQ0gTJ-1">
          <mxGeometry x="586" y="317.38" width="70" height="56" as="geometry" />
        </mxCell>
        <mxCell id="ubaqVUaNlJTxCrMpt4IK-18" style="edgeStyle=orthogonalEdgeStyle;rounded=0;orthogonalLoop=1;jettySize=auto;html=1;entryX=0.408;entryY=0;entryDx=0;entryDy=0;entryPerimeter=0;" edge="1" parent="gAgLK6gLITIS4cRQ0gTJ-1" source="ubaqVUaNlJTxCrMpt4IK-17" target="ubaqVUaNlJTxCrMpt4IK-3">
          <mxGeometry relative="1" as="geometry" />
        </mxCell>
        <mxCell id="ubaqVUaNlJTxCrMpt4IK-17" value="无prometheus项目接入" style="ellipse;whiteSpace=wrap;html=1;rounded=0;" vertex="1" parent="gAgLK6gLITIS4cRQ0gTJ-1">
          <mxGeometry x="675" y="72" width="120" height="80" as="geometry" />
        </mxCell>
        <mxCell id="ubaqVUaNlJTxCrMpt4IK-19" value="申请pushgateway接口" style="text;html=1;align=center;verticalAlign=middle;resizable=0;points=[];autosize=1;" vertex="1" parent="gAgLK6gLITIS4cRQ0gTJ-1">
          <mxGeometry x="593" y="157" width="129" height="18" as="geometry" />
        </mxCell>
      </root>
    </mxGraphModel>
  </diagram>
  <diagram id="IUOMKvsqNoGwRaSkd6iQ" name="第 5 页">
    <mxGraphModel dx="1422" dy="794" grid="0" gridSize="10" guides="1" tooltips="1" connect="0" arrows="1" fold="1" page="1" pageScale="1" pageWidth="827" pageHeight="1169" math="0" shadow="0">
      <root>
        <mxCell id="oecHxp_e7m4xCOKkL-Ti-0" />
        <mxCell id="oecHxp_e7m4xCOKkL-Ti-1" parent="oecHxp_e7m4xCOKkL-Ti-0" />
        <mxCell id="oecHxp_e7m4xCOKkL-Ti-20" value="" style="edgeStyle=orthogonalEdgeStyle;shape=flexArrow;rounded=0;orthogonalLoop=1;jettySize=auto;html=1;" edge="1" parent="oecHxp_e7m4xCOKkL-Ti-1" source="oecHxp_e7m4xCOKkL-Ti-21" target="oecHxp_e7m4xCOKkL-Ti-23">
          <mxGeometry relative="1" as="geometry" />
        </mxCell>
        <mxCell id="oecHxp_e7m4xCOKkL-Ti-21" value="创建报警计划和报警策略" style="strokeWidth=2;html=1;shape=mxgraph.flowchart.start_1;whiteSpace=wrap;rounded=0;" vertex="1" parent="oecHxp_e7m4xCOKkL-Ti-1">
          <mxGeometry x="546" y="43" width="148" height="42" as="geometry" />
        </mxCell>
        <mxCell id="oecHxp_e7m4xCOKkL-Ti-22" style="edgeStyle=orthogonalEdgeStyle;shape=flexArrow;rounded=0;orthogonalLoop=1;jettySize=auto;html=1;entryX=0.5;entryY=0;entryDx=0;entryDy=0;" edge="1" parent="oecHxp_e7m4xCOKkL-Ti-1" source="oecHxp_e7m4xCOKkL-Ti-23" target="oecHxp_e7m4xCOKkL-Ti-25">
          <mxGeometry relative="1" as="geometry" />
        </mxCell>
        <mxCell id="oecHxp_e7m4xCOKkL-Ti-23" value="添加promethues数据源" style="rounded=1;whiteSpace=wrap;html=1;absoluteArcSize=1;arcSize=14;strokeWidth=2;" vertex="1" parent="oecHxp_e7m4xCOKkL-Ti-1">
          <mxGeometry x="570" y="133" width="101" height="38" as="geometry" />
        </mxCell>
        <mxCell id="oecHxp_e7m4xCOKkL-Ti-24" value="" style="edgeStyle=orthogonalEdgeStyle;shape=flexArrow;rounded=0;orthogonalLoop=1;jettySize=auto;html=1;" edge="1" parent="oecHxp_e7m4xCOKkL-Ti-1" source="oecHxp_e7m4xCOKkL-Ti-25" target="oecHxp_e7m4xCOKkL-Ti-26">
          <mxGeometry relative="1" as="geometry" />
        </mxCell>
        <mxCell id="oecHxp_e7m4xCOKkL-Ti-25" value="添加报警规则" style="rounded=1;whiteSpace=wrap;html=1;absoluteArcSize=1;arcSize=14;strokeWidth=2;" vertex="1" parent="oecHxp_e7m4xCOKkL-Ti-1">
          <mxGeometry x="570" y="221" width="101" height="47" as="geometry" />
        </mxCell>
        <mxCell id="oecHxp_e7m4xCOKkL-Ti-26" value="添加报警接收组" style="rounded=1;whiteSpace=wrap;html=1;absoluteArcSize=1;arcSize=14;strokeWidth=2;" vertex="1" parent="oecHxp_e7m4xCOKkL-Ti-1">
          <mxGeometry x="569.5" y="310" width="101" height="47" as="geometry" />
        </mxCell>
        <mxCell id="oecHxp_e7m4xCOKkL-Ti-27" value="" style="strokeWidth=2;html=1;shape=mxgraph.flowchart.annotation_2;align=left;labelPosition=right;pointerEvents=1;rounded=0;" vertex="1" parent="oecHxp_e7m4xCOKkL-Ti-1">
          <mxGeometry x="503" y="140" width="50" height="203" as="geometry" />
        </mxCell>
        <mxCell id="UjthGIxd2QcsnkeOkq2G-24" style="edgeStyle=orthogonalEdgeStyle;rounded=0;orthogonalLoop=1;jettySize=auto;html=1;dashed=1;endArrow=classic;endFill=1;" edge="1" parent="oecHxp_e7m4xCOKkL-Ti-1" source="oecHxp_e7m4xCOKkL-Ti-28">
          <mxGeometry relative="1" as="geometry">
            <mxPoint x="444" y="132" as="targetPoint" />
          </mxGeometry>
        </mxCell>
        <mxCell id="oecHxp_e7m4xCOKkL-Ti-28" value="Alter Gateway提供相关API，保存数据" style="shape=ext;double=1;rounded=0;whiteSpace=wrap;html=1;" vertex="1" parent="oecHxp_e7m4xCOKkL-Ti-1">
          <mxGeometry x="384" y="198" width="119" height="80" as="geometry" />
        </mxCell>
        <mxCell id="oecHxp_e7m4xCOKkL-Ti-31" style="edgeStyle=orthogonalEdgeStyle;rounded=0;orthogonalLoop=1;jettySize=auto;html=1;" edge="1" parent="oecHxp_e7m4xCOKkL-Ti-1" source="oecHxp_e7m4xCOKkL-Ti-29">
          <mxGeometry relative="1" as="geometry">
            <mxPoint x="443" y="283" as="targetPoint" />
          </mxGeometry>
        </mxCell>
        <mxCell id="oecHxp_e7m4xCOKkL-Ti-32" value="获取rule 和prometheus url" style="edgeLabel;html=1;align=center;verticalAlign=middle;resizable=0;points=[];" vertex="1" connectable="0" parent="oecHxp_e7m4xCOKkL-Ti-31">
          <mxGeometry x="0.1639" y="3" relative="1" as="geometry">
            <mxPoint as="offset" />
          </mxGeometry>
        </mxCell>
        <mxCell id="oecHxp_e7m4xCOKkL-Ti-29" value="Rule Engine" style="shape=ext;double=1;rounded=0;whiteSpace=wrap;html=1;" vertex="1" parent="oecHxp_e7m4xCOKkL-Ti-1">
          <mxGeometry x="383" y="405" width="120" height="61" as="geometry" />
        </mxCell>
        <mxCell id="UjthGIxd2QcsnkeOkq2G-3" style="edgeStyle=orthogonalEdgeStyle;rounded=0;orthogonalLoop=1;jettySize=auto;html=1;exitX=0;exitY=0.5;exitDx=0;exitDy=0;" edge="1" parent="oecHxp_e7m4xCOKkL-Ti-1" source="UjthGIxd2QcsnkeOkq2G-0">
          <mxGeometry relative="1" as="geometry">
            <mxPoint x="505" y="433" as="targetPoint" />
          </mxGeometry>
        </mxCell>
        <mxCell id="UjthGIxd2QcsnkeOkq2G-0" value="" style="rounded=0;whiteSpace=wrap;html=1;" vertex="1" parent="oecHxp_e7m4xCOKkL-Ti-1">
          <mxGeometry x="625" y="405" width="67" height="56" as="geometry" />
        </mxCell>
        <mxCell id="UjthGIxd2QcsnkeOkq2G-1" value="" style="rounded=0;whiteSpace=wrap;html=1;" vertex="1" parent="oecHxp_e7m4xCOKkL-Ti-1">
          <mxGeometry x="632" y="411.75" width="69" height="60" as="geometry" />
        </mxCell>
        <mxCell id="UjthGIxd2QcsnkeOkq2G-2" value="prometheus server" style="rounded=0;whiteSpace=wrap;html=1;" vertex="1" parent="oecHxp_e7m4xCOKkL-Ti-1">
          <mxGeometry x="645" y="417.75" width="70" height="56" as="geometry" />
        </mxCell>
        <mxCell id="UjthGIxd2QcsnkeOkq2G-4" value="PromQL查询数据" style="text;html=1;align=center;verticalAlign=middle;resizable=0;points=[];autosize=1;" vertex="1" parent="oecHxp_e7m4xCOKkL-Ti-1">
          <mxGeometry x="513" y="408" width="103" height="18" as="geometry" />
        </mxCell>
        <mxCell id="UjthGIxd2QcsnkeOkq2G-16" value="" style="endArrow=none;html=1;rounded=0;dashed=1;" edge="1" parent="oecHxp_e7m4xCOKkL-Ti-1">
          <mxGeometry relative="1" as="geometry">
            <mxPoint x="335" y="440" as="sourcePoint" />
            <mxPoint x="381" y="440" as="targetPoint" />
          </mxGeometry>
        </mxCell>
        <mxCell id="UjthGIxd2QcsnkeOkq2G-19" value="" style="endArrow=none;html=1;rounded=0;dashed=1;" edge="1" parent="oecHxp_e7m4xCOKkL-Ti-1">
          <mxGeometry relative="1" as="geometry">
            <mxPoint x="335" y="237" as="sourcePoint" />
            <mxPoint x="335" y="442" as="targetPoint" />
          </mxGeometry>
        </mxCell>
        <mxCell id="UjthGIxd2QcsnkeOkq2G-20" value="" style="endArrow=classic;html=1;dashed=1;" edge="1" parent="oecHxp_e7m4xCOKkL-Ti-1">
          <mxGeometry width="50" height="50" relative="1" as="geometry">
            <mxPoint x="339" y="235" as="sourcePoint" />
            <mxPoint x="383" y="235" as="targetPoint" />
          </mxGeometry>
        </mxCell>
        <mxCell id="UjthGIxd2QcsnkeOkq2G-21" value="计算规则，推送Alters" style="text;html=1;align=center;verticalAlign=middle;resizable=0;points=[];autosize=1;" vertex="1" parent="oecHxp_e7m4xCOKkL-Ti-1">
          <mxGeometry x="201" y="360" width="125" height="18" as="geometry" />
        </mxCell>
        <mxCell id="UjthGIxd2QcsnkeOkq2G-25" value="发出告警" style="rounded=1;whiteSpace=wrap;html=1;" vertex="1" parent="oecHxp_e7m4xCOKkL-Ti-1">
          <mxGeometry x="394" y="82" width="99" height="45" as="geometry" />
        </mxCell>
      </root>
    </mxGraphModel>
  </diagram>
</mxfile>
